<?xml version="1.0" encoding="UTF-8"?>
<svg xmlns="http://www.w3.org/2000/svg" xmlns:xlink="http://www.w3.org/1999/xlink" width="192px" height="192px" viewBox="0 0 192 192" version="1.1">
<g id="surface1">
<path style=" stroke:none;fill-rule:nonzero;fill:rgb(13.72549%,12.156863%,12.54902%);fill-opacity:1;" d="M 96.148438 176.699219 C 67.351562 176.699219 40.351562 161.101562 25.949219 135.898438 L 27.449219 135 C 41.550781 159.601562 67.949219 174.898438 96.148438 174.898438 C 124.351562 174.898438 150.75 159.601562 164.851562 135 L 166.351562 135.898438 C 151.949219 161.101562 124.949219 176.699219 96.148438 176.699219 Z M 164.550781 57 C 150.449219 32.398438 124.351562 17.101562 95.851562 17.101562 C 67.648438 17.101562 41.25 32.398438 27.148438 57 L 25.648438 56.101562 C 40.050781 30.898438 67.050781 15.300781 95.851562 15.300781 C 124.648438 15.300781 151.648438 30.898438 166.050781 56.101562 Z M 164.550781 57 "/>
<path style=" stroke:none;fill-rule:nonzero;fill:rgb(20.784314%,63.529412%,85.882353%);fill-opacity:1;" d="M 57.75 60 L 134.550781 60 C 124.949219 49.800781 111.148438 43.199219 96.148438 43.199219 C 80.851562 43.199219 67.351562 49.800781 57.75 60 M 43.648438 93 L 148.648438 93 C 148.050781 83.101562 144.75 74.101562 139.648438 66.601562 L 52.648438 66.601562 C 47.25 74.101562 44.25 83.101562 43.648438 93 M 134.550781 132 L 57.75 132 C 67.351562 142.199219 81.148438 148.800781 96.148438 148.800781 C 111.449219 148.800781 124.949219 142.199219 134.550781 132 M 139.648438 125.699219 C 144.75 118.199219 148.050781 108.898438 148.648438 99.300781 L 43.648438 99.300781 C 44.25 109.199219 47.550781 118.199219 52.648438 125.699219 Z M 139.648438 125.699219 "/>
</g>
</svg>
