<?xml version="1.0" encoding="UTF-8"?>
<svg xmlns="http://www.w3.org/2000/svg" xmlns:xlink="http://www.w3.org/1999/xlink" width="512px" height="512px" viewBox="0 0 512 512" version="1.1">
<g id="surface1">
<path style=" stroke:none;fill-rule:nonzero;fill:rgb(13.72549%,12.156863%,12.54902%);fill-opacity:1;" d="M 256.398438 471.199219 C 179.601562 471.199219 107.601562 429.601562 69.199219 362.398438 L 73.199219 360 C 110.800781 425.601562 181.199219 466.398438 256.398438 466.398438 C 331.601562 466.398438 402 425.601562 439.601562 360 L 443.601562 362.398438 C 405.199219 429.601562 333.199219 471.199219 256.398438 471.199219 Z M 438.800781 152 C 401.199219 86.398438 331.601562 45.601562 255.601562 45.601562 C 180.398438 45.601562 110 86.398438 72.398438 152 L 68.398438 149.601562 C 106.800781 82.398438 178.800781 40.800781 255.601562 40.800781 C 332.398438 40.800781 404.398438 82.398438 442.800781 149.601562 Z M 438.800781 152 "/>
<path style=" stroke:none;fill-rule:nonzero;fill:rgb(20.784314%,63.529412%,85.882353%);fill-opacity:1;" d="M 154 160 L 358.800781 160 C 333.199219 132.800781 296.398438 115.199219 256.398438 115.199219 C 215.601562 115.199219 179.601562 132.800781 154 160 M 116.398438 248 L 396.398438 248 C 394.800781 221.601562 386 197.601562 372.398438 177.601562 L 140.398438 177.601562 C 126 197.601562 118 221.601562 116.398438 248 M 358.800781 352 L 154 352 C 179.601562 379.199219 216.398438 396.800781 256.398438 396.800781 C 297.199219 396.800781 333.199219 379.199219 358.800781 352 M 372.398438 335.199219 C 386 315.199219 394.800781 290.398438 396.398438 264.800781 L 116.398438 264.800781 C 118 291.199219 126.800781 315.199219 140.398438 335.199219 Z M 372.398438 335.199219 "/>
</g>
</svg>
