<?xml version="1.0" encoding="utf-8"?>
<!-- Generator: Adobe Illustrator 28.1.0, SVG Export Plug-In . SVG Version: 6.00 Build 0)  -->
<svg version="1.1" id="Layer_1" xmlns="http://www.w3.org/2000/svg" xmlns:xlink="http://www.w3.org/1999/xlink" x="0px" y="0px"
	 width="216.2px" height="79.4px" viewBox="0 0 216.2 79.4" enable-background="new 0 0 216.2 79.4" xml:space="preserve">
<g>
	<path fill="#231F20" d="M108.2,66.6c-9.6,0-18.6-5.2-23.4-13.6l0.5-0.3C90,60.9,98.8,66,108.2,66c9.4,0,18.2-5.1,22.9-13.3l0.5,0.3
		C126.8,61.4,117.8,66.6,108.2,66.6z M131,26.7c-4.7-8.2-13.4-13.3-22.9-13.3c-9.4,0-18.2,5.1-22.9,13.3l-0.5-0.3
		c4.8-8.4,13.8-13.6,23.4-13.6c9.6,0,18.6,5.2,23.4,13.6L131,26.7z"/>
	<path fill="#231F20" d="M73.3,46.7h10.2v-3.1h-6.5V32.7h-3.6V46.7z M59.7,46.7h11.4v-3.1h-7.7v-2.7h6.9v-2.8h-6.9v-2.5h7.5v-2.9
		H59.7V46.7z M49.2,35.5H52c0.8,0,1.5,0.3,1.5,1.4c0,1-0.9,1.3-1.5,1.3h-2.8V35.5z M45.5,46.7h6.7c3,0,5.5-1,5.5-4.4
		c0-1.6-0.9-2.9-2.4-3.3c1.1-0.5,1.8-1.6,1.8-2.8c0-2.9-2.6-3.6-5.1-3.5h-6.6V46.7z M49.2,40.6h2.9c1.1,0,2,0.4,2,1.6
		c0,1.2-0.8,1.6-2,1.6h-2.9V40.6z M30.2,46.7h3.7l0.9-2.5h4.9l0.9,2.5h3.8l-5.2-14h-3.7L30.2,46.7z M37.2,36.6L37.2,36.6l1.6,4.9
		h-3.2L37.2,36.6z M16.3,46.7h3.6v-4.3l1.5-1.6l3.8,5.9h4.5l-5.8-8.5l5.2-5.5h-4.5l-4.6,5.4v-5.4h-3.6V46.7z"/>
	<path fill="#231F20" d="M193.6,34l2.7,7.2h-5.5L193.6,34z M187.3,46.7h1.4l1.7-4.4h6.4l1.7,4.4h1.4l-5.5-14H193L187.3,46.7z
		 M175.3,46.7h1.3v-4.8l2.7-2.5l5.8,7.3h1.7l-6.6-8.2l6.3-5.8h-1.8l-8.1,7.5v-7.5h-1.3V46.7z M171.3,46.7h1.3v-14h-1.3V46.7z
		 M159,33.8h4.9v12.9h1.3V33.8h4.9v-1.1H159V33.8z M149.6,33.8h4.6c1.8,0,3.1,0.9,3.1,2.9c0,1.9-1.3,2.9-3.1,2.9h-4.6V33.8z
		 M148.2,46.7h1.3v-6h4.9c2.5,0,4.2-1.5,4.2-4c0-2.5-1.6-4-4.2-4h-6.2V46.7z M134.4,39.7c0-3.1,1.6-6.2,5.3-6.2
		c3.7,0,5.3,3.1,5.3,6.2c0,3.1-1.6,6.2-5.3,6.2C136,45.9,134.4,42.8,134.4,39.7 M133.1,39.7c0,3.8,2.2,7.3,6.6,7.3
		c4.4,0,6.6-3.5,6.6-7.3c0-3.8-2.2-7.3-6.6-7.3C135.3,32.4,133.1,35.9,133.1,39.7"/>
	<path fill="#35A2DB" d="M95.4,27.7H121c-3.2-3.4-7.8-5.6-12.8-5.6C103.1,22.1,98.6,24.3,95.4,27.7 M90.7,38.7h35
		c-0.2-3.3-1.3-6.3-3-8.8h-29C91.9,32.4,90.9,35.4,90.7,38.7 M121,51.7H95.4c3.2,3.4,7.8,5.6,12.8,5.6
		C113.3,57.3,117.8,55.1,121,51.7 M122.7,49.6c1.7-2.5,2.8-5.6,3-8.8h-35c0.2,3.3,1.3,6.3,3,8.8H122.7z"/>
</g>
</svg>
